# xmcd
# Track frame offsets:
# 150
# 14639
# 32979
# 48379
# 65961
# 86837
# 102100
# 123534
# 137934
# 155816
# 175643
# 194203
# 210645
# 228987
# 246781
#
# Disc length: 3588 seconds
# Revision: 0
# Processed by: cddbd v1.5.1PL0 Copyright (c) Steve Scherf et al.
# Submitted via: VisiTrax 2.9.10.228 - For more info visit www.synapsa.com
#
DISCID=e50e020f
DTITLE=Various Artist - CB60317
DYEAR=1900
DGENRE=Karaoke
TTITLE0=Blue County  - Good Little Girls
TTITLE1=Twain, Shania - She's Not Just A Pretty Face
TTITLE2=Denney, Kevin - Year At A Time, A
TTITLE3=Coffey, Kellie - Texas Plates
TTITLE4=Jackson, Alan - Remember When
TTITLE5=McBride, Martina - In My Daughter's Eyes
TTITLE6=Gill, Vince - Young Man's Town
TTITLE7=Trevino, Rick - Overnight Success
TTITLE8=Howard, Rebecca Lynn - I Need A Vacation
TTITLE9=Larkins, The  - Steady As The Rain
TTITLE10=Black, Clint - Spend My Time
TTITLE11=Morgan, Lorrie - Do You Still Want To Buy Me That Drink
TTITLE12=Mellons, Ken - Paint Me A Birmingham
TTITLE13=Cash, Rosanne & Johnny - September When It Comes
TTITLE14=Taylor, James & Alison - How's The World Treating You
EXTD=
EXTT0=
EXTT1=
EXTT2=
EXTT3=
EXTT4=
EXTT5=
EXTT6=
EXTT7=
EXTT8=
EXTT9=
EXTT10=
EXTT11=
EXTT12=
EXTT13=
EXTT14=
PLAYORDER=
